HIERARCHY
ROOT Joint1
{
	OFFSET 0.000000 0.000000 0.000000
	CHANNELS 6 Xposition Yposition Zposition Xrotation Yrotation Zrotation
	JOINT Joint2
	{
		OFFSET -0.000000 0.000000 1.456275
		CHANNELS 6 Xposition Yposition Zposition Xrotation Yrotation Zrotation
		JOINT Joint3
		{
			OFFSET -0.000000 0.000002 1.471446
			CHANNELS 6 Xposition Yposition Zposition Xrotation Yrotation Zrotation
			JOINT Joint4
			{
				OFFSET 0.625745 0.000000 0.917755
				CHANNELS 6 Xposition Yposition Zposition Xrotation Yrotation Zrotation
				JOINT Joint5
				{
					OFFSET -0.629534 0.000001 0.940221
					CHANNELS 6 Xposition Yposition Zposition Xrotation Yrotation Zrotation
					JOINT Joint6
					{
						OFFSET -0.000001 0.113772 1.960660
						CHANNELS 6 Xposition Yposition Zposition Xrotation Yrotation Zrotation
						JOINT Joint7
						{
							OFFSET -0.669733 -0.113771 0.388340
							CHANNELS 6 Xposition Yposition Zposition Xrotation Yrotation Zrotation
							End Site
							{
								OFFSET 0.005509 0.005509 0.438980
							}
						}
					}
				}
			}
		}
	}
}
MOTION
Frames: 26
Frame Time: 0.041667
0.000000 0.000000 0.000000 -0.000000 1.019410 -77.372028 -0.000000 -0.000000 1.456275 -0.000001 -40.210526 0.000001 -0.000000 0.000002 1.471446 -0.000004 -1.133465 -64.241754 0.625745 0.000000 0.917755 0.000003 115.593575 -0.000006 -0.629534 0.000001 0.940220 -0.000005 1.709737 29.251026 -0.000001 0.113772 1.960660 -88.303882 -213.376681 -0.000004 -0.669733 -0.113771 0.388341 -0.852717 3.555559 143.299828 
0.000000 0.000000 0.000000 -0.000000 1.019410 -74.593172 -0.000000 0.000000 1.456275 -0.000000 -40.381745 0.000002 -0.000000 0.000002 1.471446 -0.000003 -1.133461 -61.935609 0.625745 0.000000 0.917755 0.000011 116.291525 0.000006 -0.629534 0.000001 0.940221 -0.000005 1.709738 28.199952 -0.000001 0.113772 1.960660 -88.303882 -215.411339 -0.000005 -0.669733 -0.113771 0.388340 -0.847457 3.556310 143.000693 
0.000000 0.000000 0.000000 -0.000000 1.019410 -71.845865 -0.000000 -0.000000 1.456275 -0.000002 -40.551024 -0.000001 -0.000000 0.000002 1.471446 -0.000005 -1.133467 -59.655637 0.625745 0.000000 0.917755 0.000002 116.981551 -0.000004 -0.629534 0.000001 0.940221 0.000001 1.709737 27.160811 -0.000001 0.113772 1.960661 -88.303882 -217.422898 0.000000 -0.669733 -0.113771 0.388340 -0.842254 3.557027 142.704945 
0.000000 0.000000 0.000000 -0.000000 1.019410 -69.689527 -0.000000 0.000000 1.456275 -0.000002 -40.683889 -0.000001 -0.000000 0.000002 1.471446 -0.000003 -1.133463 -57.866100 0.625745 0.000001 0.917755 -0.000001 117.523131 -0.000000 -0.629533 0.000001 0.940221 0.000002 1.709736 26.345196 -0.000001 0.113772 1.960660 -88.303882 -219.001779 0.000000 -0.669733 -0.113771 0.388340 -0.838166 3.557572 142.472815 
0.000000 0.000000 0.000000 -0.000000 1.019410 -67.961755 -0.000000 0.000000 1.456275 -0.000000 -40.790347 -0.000002 -0.000000 0.000002 1.471446 -0.000002 -1.133467 -56.432235 0.625744 0.000001 0.917755 -0.000000 117.957094 -0.000004 -0.629534 0.000001 0.940221 0.000001 1.709736 25.691685 -0.000001 0.113772 1.960661 -88.303882 -220.266825 -0.000002 -0.669733 -0.113771 0.388341 -0.834890 3.557995 142.286815 
0.000000 0.000000 0.000000 -0.000000 1.019410 -66.319709 -0.000000 0.000000 1.456275 -0.000000 -40.891526 0.000001 -0.000000 0.000002 1.471446 -0.000004 -1.133465 -55.069514 0.625744 0.000000 0.917755 -0.000005 118.369501 -0.000000 -0.629534 0.000001 0.940221 -0.000001 1.709736 25.070597 -0.000001 0.113772 1.960661 -88.303882 -221.469130 0.000001 -0.669733 -0.113771 0.388340 -0.831775 3.558388 142.110063 
0.000000 0.000000 0.000000 -0.000000 1.019410 -64.506246 -0.000000 0.000000 1.456275 0.000003 -41.003268 -0.000001 -0.000000 0.000002 1.471446 -0.000004 -1.133467 -53.564533 0.625745 0.000000 0.917755 0.000001 118.824992 0.000005 -0.629533 0.000001 0.940221 0.000003 1.709735 24.384677 -0.000001 0.113772 1.960661 -88.303875 -222.796946 0.000000 -0.669733 -0.113771 0.388341 -0.828334 3.558809 141.914857 
0.000000 0.000000 0.000000 -0.000000 1.019410 -62.607058 -0.000000 0.000000 1.456275 -0.000000 -41.120286 0.000001 -0.000000 0.000002 1.471446 -0.000005 -1.133464 -51.988419 0.625745 0.000001 0.917755 -0.000001 119.301985 -0.000002 -0.629534 0.000001 0.940220 -0.000000 1.709738 23.666325 -0.000000 0.113772 1.960661 -88.303875 -224.187518 0.000002 -0.669733 -0.113771 0.388340 -0.824728 3.559239 141.710415 
0.000000 0.000000 0.000000 -0.000000 1.019410 -60.793547 -0.000000 0.000000 1.456275 0.000003 -41.232032 0.000001 -0.000000 0.000002 1.471446 -0.000001 -1.133463 -50.483393 0.625744 0.000000 0.917755 0.000003 119.757463 0.000000 -0.629534 0.000001 0.940221 -0.000000 1.709736 22.980393 -0.000001 0.113772 1.960660 -88.303882 -225.515361 0.000003 -0.669733 -0.113771 0.388340 -0.821283 3.559638 141.515181 
0.000000 0.000000 0.000000 -0.000000 1.019410 -59.151412 -0.000000 0.000000 1.456275 0.000002 -41.333218 -0.000004 -0.000000 0.000002 1.471445 -0.000005 -1.133467 -49.120607 0.625745 0.000000 0.917755 0.000004 120.169897 -0.000001 -0.629534 0.000001 0.940221 -0.000001 1.709737 22.359268 -0.000001 0.113772 1.960660 -88.303875 -226.717720 0.000001 -0.669733 -0.113771 0.388341 -0.818163 3.559989 141.338416 
0.000000 0.000000 0.000000 -0.000000 1.019410 -57.423613 -0.000000 0.000000 1.456275 0.000000 -41.439670 0.000000 -0.000001 0.000002 1.471445 -0.000002 -1.133464 -47.686707 0.625745 0.000000 0.917755 0.000004 120.603860 -0.000002 -0.629534 0.000001 0.940221 -0.000001 1.709737 21.705744 -0.000001 0.113772 1.960660 -88.303875 -227.982808 0.000002 -0.669733 -0.113771 0.388341 -0.814879 3.560348 141.152403 
0.000000 0.000000 0.000000 -0.000000 1.019410 -55.267391 -0.000000 0.000000 1.456275 -0.000003 -41.572530 -0.000002 -0.000000 0.000002 1.471446 -0.000004 -1.133464 -45.897270 0.625745 0.000000 0.917755 0.000004 121.145426 -0.000002 -0.629533 0.000001 0.940221 -0.000001 1.709736 20.890176 -0.000000 0.113772 1.960661 -88.303875 -229.561565 0.000003 -0.669733 -0.113771 0.388340 -0.810779 3.560780 140.920299 
0.000000 0.000000 0.000000 -0.000000 1.019410 -52.520323 -0.000000 -0.000000 1.456275 -0.000002 -41.741793 -0.000001 -0.000000 0.000002 1.471446 0.000003 -1.133464 -43.617499 0.625745 0.000000 0.917755 0.000006 121.835384 -0.000001 -0.629534 0.000001 0.940221 -0.000000 1.709736 19.851123 -0.000001 0.113772 1.960660 -88.303875 -231.572974 0.000003 -0.669733 -0.113771 0.388340 -0.805553 3.561305 140.624579 
0.000000 0.000000 0.000000 -0.000000 1.019410 -49.741235 -0.000000 0.000000 1.456275 -0.000000 -41.913036 0.000000 -0.000000 0.000002 1.471446 -0.000001 -1.133464 -41.311160 0.625744 0.000000 0.917755 0.000005 122.533389 -0.000002 -0.629533 0.000001 0.940221 -0.000000 1.709736 18.799963 -0.000001 0.113772 1.960660 -88.303875 -233.607797 0.000003 -0.669733 -0.113771 0.388341 -0.800264 3.561813 140.325417 
0.000000 0.000000 0.000000 -0.000000 1.019410 -47.506735 -0.000000 0.000000 1.456275 -0.000003 -42.050715 -0.000000 -0.000000 0.000002 1.471446 -0.000000 -1.133461 -39.456760 0.625745 0.000001 0.917755 0.000003 123.094598 -0.000001 -0.629533 0.000001 0.940221 -0.000001 1.709737 17.954788 -0.000001 0.113772 1.960660 -88.303875 -235.243873 0.000002 -0.669733 -0.113771 0.388340 -0.796008 3.562199 140.084885 
0.000000 0.000000 0.000000 -0.000000 1.019410 -45.743361 -0.000000 0.000000 1.456275 -0.000002 -42.159367 -0.000001 -0.000001 0.000002 1.471445 -0.000001 -1.133466 -37.993340 0.625745 0.000001 0.917755 0.000007 123.537495 -0.000003 -0.629534 0.000001 0.940221 -0.000000 1.709736 17.287810 -0.000001 0.113772 1.960661 -88.303875 -236.535024 0.000006 -0.669733 -0.113771 0.388341 -0.792650 3.562492 139.895060 
0.000000 0.000000 0.000000 -0.000000 1.019410 -44.215072 -0.000000 -0.000000 1.456275 0.000000 -42.253531 -0.000001 -0.000000 0.000002 1.471446 0.000001 -1.133463 -36.725029 0.625745 0.000000 0.917755 -0.000001 123.921338 0.000000 -0.629534 0.000001 0.940221 0.000001 1.709737 16.709750 -0.000001 0.113772 1.960660 -88.303875 -237.654028 0.000002 -0.669733 -0.113771 0.388339 -0.789738 3.562738 139.730535 
0.000000 0.000000 0.000000 -0.000000 1.019410 -42.686172 -0.000000 0.000000 1.456275 0.000001 -42.347740 -0.000000 -0.000000 0.000002 1.471446 0.000001 -1.133460 -35.456209 0.625745 0.000000 0.917755 0.000008 124.305345 -0.000002 -0.629534 0.000001 0.940221 -0.000003 1.709737 16.131461 -0.000001 0.113772 1.960660 -88.303875 -238.773496 0.000002 -0.669733 -0.113771 0.388340 -0.786824 3.562974 139.565954 
0.000000 0.000000 0.000000 -0.000000 1.019410 -40.922177 -0.000000 0.000000 1.456275 -0.000001 -42.456435 -0.000004 -0.000000 0.000002 1.471446 -0.000002 -1.133465 -33.992291 0.625745 0.000000 0.917755 0.000009 124.748392 0.000001 -0.629534 0.000001 0.940221 0.000000 1.709736 15.464248 -0.000001 0.113772 1.960661 -88.303875 -240.065085 0.000004 -0.669733 -0.113771 0.388339 -0.783461 3.563237 139.376062 
0.000000 0.000000 0.000000 -0.000000 1.019410 -38.688910 -0.000000 -0.000000 1.456275 0.000000 -42.594040 -0.000000 -0.000000 0.000002 1.471446 -0.000002 -1.133460 -32.138916 0.625744 0.000000 0.917755 0.000006 125.309301 0.000000 -0.629534 0.000001 0.940221 -0.000001 1.709737 14.619538 -0.000001 0.113772 1.960661 -88.303875 -241.700232 0.000001 -0.669733 -0.113771 0.388339 -0.779203 3.563553 139.135653 
0.000000 0.000000 0.000000 -0.000000 1.019410 -35.912807 -0.000000 0.000000 1.456275 0.000004 -42.765085 0.000004 -0.000001 0.000002 1.471446 -0.000001 -1.133466 -29.835045 0.625745 0.000000 0.917755 0.000010 126.006540 0.000000 -0.629533 0.000001 0.940221 -0.000003 1.709736 13.569509 -0.000001 0.113773 1.960661 -88.303875 -243.732896 0.000004 -0.669733 -0.113771 0.388339 -0.773907 3.563921 138.836804 
0.000000 0.000000 0.000000 -0.000000 1.019410 -33.162754 -0.000000 0.000000 1.456275 0.000000 -42.934535 0.000001 -0.000000 0.000002 1.471446 -0.000003 -1.133463 -27.552787 0.625745 0.000000 0.917755 0.000005 126.697277 0.000000 -0.629534 0.000001 0.940221 -0.000000 1.709737 12.529327 -0.000001 0.113772 1.960660 -88.303875 -245.746491 0.000006 -0.669733 -0.113771 0.388339 -0.768661 3.564259 138.540770 
0.000000 0.000000 0.000000 -0.000000 1.019410 -30.993162 -0.000000 0.000000 1.456275 0.000001 -43.068222 0.000002 -0.000000 0.000002 1.471446 -0.000000 -1.133461 -25.752258 0.625745 0.000000 0.917755 0.000004 127.242176 -0.000003 -0.629534 0.000001 0.940221 -0.000000 1.709737 11.708702 0.000000 0.113772 1.960660 -88.303875 -247.335029 0.000004 -0.669733 -0.113771 0.388340 -0.764519 3.564506 138.307233 
0.000000 0.000000 0.000000 -0.000000 1.019410 -29.258109 -0.000000 -0.000000 1.456275 0.000001 -43.175132 0.000001 -0.000000 0.000002 1.471446 -0.000001 -1.133462 -24.312352 0.625745 0.000000 0.917755 0.000001 127.677942 -0.000004 -0.629534 0.000001 0.940221 -0.000002 1.709737 11.052437 -0.000001 0.113773 1.960660 -88.303875 -248.605444 0.000009 -0.669733 -0.113771 0.388340 -0.761206 3.564691 138.120441 
0.000000 0.000000 0.000000 -0.000000 1.019410 -27.636593 -0.000000 -0.000000 1.456275 0.000002 -43.275040 0.000001 -0.000000 0.000002 1.471446 -0.000002 -1.133463 -22.966668 0.625745 0.000000 0.917755 0.000003 128.085212 -0.000001 -0.629533 0.000001 0.940221 -0.000000 1.709736 10.439114 -0.000001 0.113773 1.960661 -88.303875 -249.792695 0.000009 -0.669733 -0.113771 0.388340 -0.758110 3.564855 137.945888 
0.000000 0.000000 0.000000 -0.000000 1.019410 -25.876769 -0.000000 0.000000 1.456275 0.000001 -43.383480 0.000001 -0.000000 0.000002 1.471446 0.000002 -1.133462 -21.506200 0.625745 0.000000 0.917755 0.000012 128.527208 -0.000001 -0.629534 0.000001 0.940221 -0.000003 1.709737 9.773481 -0.000000 0.113773 1.960660 -88.303868 -251.081251 0.000009 -0.669733 -0.113771 0.388341 -0.754750 3.565022 137.756446 
